<?xml version="1.0" encoding="iso-8859-1"?>
<!-- Uploaded to: SVG Repo, www.svgrepo.com, Generator: SVG Repo Mixer Tools -->
<svg version="1.1" id="Layer_1" xmlns="http://www.w3.org/2000/svg" xmlns:xlink="http://www.w3.org/1999/xlink" 
	 viewBox="0 0 512 512" xml:space="preserve">
<circle style="fill:#303030;" cx="249.68" cy="256" r="184"/>
<circle cx="256" cy="256" r="206.336"/>
<circle cx="256" cy="256" r="184"/>
<path style="fill:#999999;" d="M256,443.248c-103.416,0.024-187.272-83.784-187.296-187.2
	c-0.024-103.416,83.784-187.272,187.2-187.296s187.272,83.784,187.296,187.2c0,0.016,0,0.032,0,0.048
	C443.088,359.344,359.344,443.104,256,443.248z M256,75.2C156.12,75.176,75.128,156.12,75.104,256s80.92,180.872,180.8,180.896
	s180.872-80.92,180.896-180.8c0-0.032,0-0.064,0-0.096C436.664,156.2,355.8,75.336,256,75.2z"/>
<circle style="fill:#E21B1B;" cx="256" cy="256" r="68.4"/>
<g transform="scale(4.8),translate(42.5,41)">
	<path xmlns="http://www.w3.org/2000/svg" d="M.006 20.47L5.649 12 .006 3.531h4.235l5.674 8.47-5.674 8.468zm5.643 0L11.29 12 5.65 3.531h4.266l11.253 16.938h-4.224l-3.535-5.34-3.495 5.34zM19.3 15.525l-1.877-2.827h6.571v2.826zm-2.826-4.235l-1.877-2.827h9.387v2.827z"/>
</g>
<g>
	<polygon style="fill:#AAAAAA;" points="351.248,367.184 335.176,356.704 424.448,219.784 424.448,53.416 443.648,53.416 
		443.648,225.488 	"/>
	<polygon style="fill:#AAAAAA;" points="397.08,296.952 340.144,384.176 321.416,346.544 355.088,294.96 	"/>
</g>
<polygon style="fill:#CCCBCA;" points="334.416,372.672 340.144,384.176 443.648,225.488 443.648,53.416 434.048,53.416 
	434.048,219.784 "/>
<circle style="fill:#AAAAAA;" cx="434.08" cy="64.64" r="37.208"/>
<circle cx="434.08" cy="64.64" r="20.408"/>
</svg>
